<svg width="15" height="17" viewBox="0 0 15 17" fill="none" xmlns="http://www.w3.org/2000/svg">
<path fill-rule="evenodd" clip-rule="evenodd" d="M7.86018 15.7734L7.85201 15.7749L7.79933 15.8009L7.78449 15.8039L7.7741 15.8009L7.72142 15.7749C7.71351 15.7725 7.70757 15.7737 7.70361 15.7786L7.70065 15.7861L7.68803 16.1036L7.69174 16.1185L7.69916 16.1281L7.77633 16.183L7.78746 16.186L7.79636 16.183L7.87353 16.1281L7.88244 16.1162L7.8854 16.1036L7.87279 15.7868C7.87081 15.7789 7.86661 15.7744 7.86018 15.7734ZM8.05681 15.6896L8.04716 15.6911L7.90989 15.7601L7.90247 15.7675L7.90024 15.7757L7.9136 16.0947L7.91731 16.1036L7.92325 16.1088L8.07239 16.1778C8.08179 16.1803 8.08896 16.1783 8.09391 16.1719L8.09687 16.1615L8.07165 15.7059C8.06917 15.697 8.06423 15.6916 8.05681 15.6896ZM7.52628 15.6911C7.52301 15.6891 7.5191 15.6885 7.51537 15.6893C7.51163 15.6901 7.50837 15.6924 7.50624 15.6955L7.50179 15.7059L7.47656 16.1615C7.47706 16.1704 7.48126 16.1764 7.48918 16.1793L7.50031 16.1778L7.64945 16.1088L7.65687 16.1029L7.65984 16.0947L7.67245 15.7757L7.67022 15.7668L7.6628 15.7593L7.52628 15.6911Z" fill="white"/>
<path fill-rule="evenodd" clip-rule="evenodd" d="M2.226 5.194C2.226 3.81647 2.77323 2.49535 3.74729 1.52129C4.72136 0.547224 6.04247 0 7.42001 0C8.79754 0 10.1187 0.547224 11.0927 1.52129C12.0668 2.49535 12.614 3.81647 12.614 5.194V5.96197C13.8724 6.14228 14.84 7.22486 14.84 8.53301V8.71851C14.8399 9.04025 14.7754 9.35872 14.6504 9.65516C14.5253 9.9516 14.3422 10.22 14.1118 10.4446C13.8814 10.6692 13.6084 10.8454 13.3089 10.9629C13.0093 11.0803 12.6893 11.1366 12.3677 11.1285C11.8186 12.7016 10.4221 13.7619 8.91514 14.0305C8.5664 14.1581 8.15384 14.098 7.79101 14.098C7.49582 14.098 7.21272 13.9807 7.004 13.772C6.79527 13.5633 6.67801 13.2802 6.67801 12.985C6.67801 12.6898 6.79527 12.4067 7.004 12.198C7.21272 11.9893 7.49582 11.872 7.79101 11.872H8.53301C8.70724 11.872 8.87905 11.9128 9.0346 11.9913C9.19015 12.0698 9.32511 12.1837 9.4286 12.3239C10.3902 11.8661 11.13 10.8992 11.13 9.64601V5.194C11.13 4.21005 10.7391 3.2664 10.0434 2.57064C9.34761 1.87488 8.40396 1.484 7.42001 1.484C6.43605 1.484 5.4924 1.87488 4.79664 2.57064C4.10088 3.2664 3.71 4.21005 3.71 5.194V9.83151C3.71 10.1759 3.5732 10.5062 3.32968 10.7497C3.08616 10.9932 2.75589 11.13 2.4115 11.13C1.77193 11.13 1.15856 10.8759 0.706313 10.4237C0.254068 9.97145 8.56339e-08 9.35808 8.56339e-08 8.71851V8.53301C-0.000160236 7.9084 0.224796 7.30466 0.633635 6.83246C1.04247 6.36025 1.6078 6.0512 2.226 5.96197V5.194ZM2.226 7.48308C2.00891 7.55983 1.82097 7.70203 1.68807 7.89007C1.55518 8.07811 1.48388 8.30274 1.484 8.53301V8.71851C1.484 9.16742 1.80306 9.54213 2.226 9.62746V7.48308ZM12.614 7.48308V9.62746C13.037 9.54139 13.356 9.16742 13.356 8.71851V8.53301C13.3561 8.30274 13.2848 8.07811 13.1519 7.89007C13.019 7.70203 12.8311 7.55983 12.614 7.48308Z" fill="white"/>
</svg>
